<mxfile modified="2020-11-30T22:39:32.510Z" host="app.diagrams.net" agent="5.0 (Macintosh; Intel Mac OS X 11_0_1) AppleWebKit/537.36 (KHTML, like Gecko) Chrome/87.0.4280.67 Safari/537.36" etag="VHWVqMkXY2siZkJRMvdD" version="13.10.4" type="github">
  <diagram id="2JyxNNU_SRswKXaLaBT6" name="Page-1">
    <mxGraphModel dx="1206" dy="1129" grid="1" gridSize="10" guides="1" tooltips="1" connect="1" arrows="1" fold="1" page="1" pageScale="1" pageWidth="1100" pageHeight="850" math="0" shadow="0">
      <root>
        <mxCell id="0" />
        <mxCell id="1" parent="0" />
        <mxCell id="AbWWFxYWgRRFwNRDI_Oc-1" value="&lt;font style=&quot;font-size: 14px&quot; face=&quot;Georgia&quot;&gt;Start&lt;/font&gt;" style="strokeWidth=2;html=1;shape=mxgraph.flowchart.terminator;whiteSpace=wrap;" parent="1" vertex="1">
          <mxGeometry x="40" y="317" width="120" height="53" as="geometry" />
        </mxCell>
        <mxCell id="AbWWFxYWgRRFwNRDI_Oc-2" value="&lt;font face=&quot;Georgia&quot;&gt;User &lt;i&gt;&lt;b&gt;u&lt;/b&gt;&lt;/i&gt; clicks&amp;nbsp;&lt;/font&gt;&lt;span style=&quot;font-family: &amp;#34;georgia&amp;#34;&quot;&gt;user&amp;nbsp;&lt;/span&gt;&lt;i style=&quot;font-family: &amp;#34;georgia&amp;#34;&quot;&gt;&lt;b&gt;v&lt;/b&gt;&#39;s&lt;/i&gt;&lt;font face=&quot;Georgia&quot;&gt;&lt;br&gt;profile page&amp;nbsp;&lt;/font&gt;" style="rounded=1;whiteSpace=wrap;html=1;absoluteArcSize=1;arcSize=14;strokeWidth=2;" parent="1" vertex="1">
          <mxGeometry x="196" y="310" width="140" height="67" as="geometry" />
        </mxCell>
        <mxCell id="AbWWFxYWgRRFwNRDI_Oc-3" value="" style="endArrow=classic;html=1;exitX=1;exitY=0.5;exitDx=0;exitDy=0;exitPerimeter=0;strokeWidth=2;" parent="1" source="AbWWFxYWgRRFwNRDI_Oc-1" target="AbWWFxYWgRRFwNRDI_Oc-2" edge="1">
          <mxGeometry width="50" height="50" relative="1" as="geometry">
            <mxPoint x="228" y="513" as="sourcePoint" />
            <mxPoint x="278" y="463" as="targetPoint" />
          </mxGeometry>
        </mxCell>
        <mxCell id="5q_IAKNCsGFluqySmHJG-20" value="&lt;font face=&quot;Georgia&quot;&gt;&lt;br&gt;User &lt;i&gt;&lt;b&gt;u &lt;/b&gt;decides whether to request matching by answering user&amp;nbsp;&lt;b&gt;v&lt;/b&gt;&#39;s questions&lt;/i&gt;&amp;nbsp;&lt;/font&gt;" style="strokeWidth=2;html=1;shape=mxgraph.flowchart.decision;whiteSpace=wrap;" parent="1" vertex="1">
          <mxGeometry x="370" y="283.5" width="228" height="120" as="geometry" />
        </mxCell>
        <mxCell id="5q_IAKNCsGFluqySmHJG-32" value="" style="endArrow=classic;html=1;strokeWidth=2;exitX=1;exitY=0.5;exitDx=0;exitDy=0;exitPerimeter=0;" parent="1" source="5q_IAKNCsGFluqySmHJG-20" target="5q_IAKNCsGFluqySmHJG-42" edge="1">
          <mxGeometry width="50" height="50" relative="1" as="geometry">
            <mxPoint x="298" y="532" as="sourcePoint" />
            <mxPoint x="298" y="642" as="targetPoint" />
          </mxGeometry>
        </mxCell>
        <mxCell id="5q_IAKNCsGFluqySmHJG-33" value="&lt;font style=&quot;font-size: 14px&quot; face=&quot;Georgia&quot;&gt;End&lt;/font&gt;" style="strokeWidth=2;html=1;shape=mxgraph.flowchart.terminator;whiteSpace=wrap;" parent="1" vertex="1">
          <mxGeometry x="679.5" y="455.5" width="101" height="42" as="geometry" />
        </mxCell>
        <mxCell id="5q_IAKNCsGFluqySmHJG-34" value="" style="edgeStyle=segmentEdgeStyle;endArrow=classic;html=1;strokeWidth=2;exitX=1;exitY=0.5;exitDx=0;exitDy=0;exitPerimeter=0;entryX=0;entryY=0.5;entryDx=0;entryDy=0;entryPerimeter=0;" parent="1" target="5q_IAKNCsGFluqySmHJG-33" edge="1">
          <mxGeometry width="50" height="50" relative="1" as="geometry">
            <mxPoint x="605.5882352941176" y="344" as="sourcePoint" />
            <mxPoint x="686.7647058823532" y="471.0588235294117" as="targetPoint" />
            <Array as="points">
              <mxPoint x="606" y="477" />
            </Array>
          </mxGeometry>
        </mxCell>
        <mxCell id="5q_IAKNCsGFluqySmHJG-36" value="No" style="text;html=1;align=center;verticalAlign=middle;whiteSpace=wrap;rounded=0;shadow=0;fillColor=#FFFFFF;strokeColor=none;fontColor=#333333;" parent="1" vertex="1">
          <mxGeometry x="591" y="388.5" width="25" height="20" as="geometry" />
        </mxCell>
        <mxCell id="5q_IAKNCsGFluqySmHJG-40" value="Yes" style="text;html=1;align=center;verticalAlign=middle;whiteSpace=wrap;rounded=0;shadow=0;fillColor=#FFFFFF;strokeColor=none;fontColor=#333333;" parent="1" vertex="1">
          <mxGeometry x="615" y="333.5" width="30" height="20" as="geometry" />
        </mxCell>
        <mxCell id="5q_IAKNCsGFluqySmHJG-42" value="&lt;span style=&quot;font-family: &amp;#34;georgia&amp;#34;&quot;&gt;User&amp;nbsp;&lt;/span&gt;&lt;i style=&quot;font-family: &amp;#34;georgia&amp;#34;&quot;&gt;&lt;b&gt;u&lt;/b&gt;&lt;/i&gt;&lt;span style=&quot;font-family: &amp;#34;georgia&amp;#34;&quot;&gt;&amp;nbsp;answers user &lt;b&gt;&lt;i&gt;v&lt;/i&gt;&lt;/b&gt;&#39;s questions&amp;nbsp;&lt;/span&gt;" style="rounded=1;whiteSpace=wrap;html=1;absoluteArcSize=1;arcSize=14;strokeWidth=2;" parent="1" vertex="1">
          <mxGeometry x="660" y="310" width="140" height="67" as="geometry" />
        </mxCell>
        <mxCell id="5q_IAKNCsGFluqySmHJG-43" value="&lt;font face=&quot;Georgia&quot;&gt;&lt;br&gt;User &lt;i&gt;&lt;b&gt;v&amp;nbsp;&lt;/b&gt;decides whether to approve user&amp;nbsp;&lt;b&gt;v&lt;/b&gt;&#39;s request&lt;/i&gt;&amp;nbsp;&lt;/font&gt;" style="strokeWidth=2;html=1;shape=mxgraph.flowchart.decision;whiteSpace=wrap;" parent="1" vertex="1">
          <mxGeometry x="840" y="298.5" width="216" height="90" as="geometry" />
        </mxCell>
        <mxCell id="5q_IAKNCsGFluqySmHJG-45" value="" style="endArrow=classic;html=1;strokeWidth=2;exitX=1;exitY=0.5;exitDx=0;exitDy=0;" parent="1" source="5q_IAKNCsGFluqySmHJG-42" target="5q_IAKNCsGFluqySmHJG-43" edge="1">
          <mxGeometry width="50" height="50" relative="1" as="geometry">
            <mxPoint x="870" y="240" as="sourcePoint" />
            <mxPoint x="870" y="271.5" as="targetPoint" />
          </mxGeometry>
        </mxCell>
        <mxCell id="5q_IAKNCsGFluqySmHJG-53" value="" style="endArrow=classic;html=1;strokeWidth=2;exitX=0.5;exitY=1;exitDx=0;exitDy=0;exitPerimeter=0;" parent="1" source="5q_IAKNCsGFluqySmHJG-43" target="5q_IAKNCsGFluqySmHJG-59" edge="1">
          <mxGeometry width="50" height="50" relative="1" as="geometry">
            <mxPoint x="300" y="802" as="sourcePoint" />
            <mxPoint x="300" y="912" as="targetPoint" />
          </mxGeometry>
        </mxCell>
        <mxCell id="5q_IAKNCsGFluqySmHJG-55" value="" style="edgeStyle=segmentEdgeStyle;endArrow=classic;html=1;strokeWidth=2;" parent="1" target="5q_IAKNCsGFluqySmHJG-33" edge="1">
          <mxGeometry width="50" height="50" relative="1" as="geometry">
            <mxPoint x="948" y="399" as="sourcePoint" />
            <mxPoint x="458" y="688.5" as="targetPoint" />
          </mxGeometry>
        </mxCell>
        <mxCell id="5q_IAKNCsGFluqySmHJG-56" value="No" style="text;html=1;align=center;verticalAlign=middle;whiteSpace=wrap;rounded=0;shadow=0;fillColor=#FFFFFF;strokeColor=none;fontColor=#333333;" parent="1" vertex="1">
          <mxGeometry x="816" y="389.5" width="24" height="20" as="geometry" />
        </mxCell>
        <mxCell id="5q_IAKNCsGFluqySmHJG-57" value="Yes" style="text;html=1;align=center;verticalAlign=middle;whiteSpace=wrap;rounded=0;shadow=0;fillColor=#FFFFFF;strokeColor=none;fontColor=#333333;" parent="1" vertex="1">
          <mxGeometry x="934" y="407.5" width="30" height="20" as="geometry" />
        </mxCell>
        <mxCell id="5q_IAKNCsGFluqySmHJG-59" value="&lt;span style=&quot;font-family: &amp;#34;georgia&amp;#34;&quot;&gt;User&amp;nbsp;&lt;/span&gt;&lt;i style=&quot;font-family: &amp;#34;georgia&amp;#34;&quot;&gt;&lt;b&gt;u&lt;/b&gt;&lt;/i&gt;&lt;span style=&quot;font-family: &amp;#34;georgia&amp;#34;&quot;&gt;&amp;nbsp;and user &lt;b style=&quot;font-style: italic&quot;&gt;v &lt;/b&gt;are matched and&amp;nbsp;can now start conversations&amp;nbsp;&lt;/span&gt;" style="rounded=1;whiteSpace=wrap;html=1;absoluteArcSize=1;arcSize=14;strokeWidth=2;" parent="1" vertex="1">
          <mxGeometry x="878" y="442.5" width="140" height="67" as="geometry" />
        </mxCell>
        <mxCell id="vZsySjs4BcU3_6OIrPdt-3" value="" style="endArrow=classic;html=1;exitX=1;exitY=0.5;exitDx=0;exitDy=0;strokeWidth=2;" parent="1" source="AbWWFxYWgRRFwNRDI_Oc-2" target="5q_IAKNCsGFluqySmHJG-20" edge="1">
          <mxGeometry width="50" height="50" relative="1" as="geometry">
            <mxPoint x="298.5" y="377" as="sourcePoint" />
            <mxPoint x="298.5" y="404" as="targetPoint" />
          </mxGeometry>
        </mxCell>
        <mxCell id="ypIUd0HdOb5FyQY_9b5Q-1" value="" style="endArrow=classic;html=1;strokeWidth=2;entryX=1;entryY=0.5;entryDx=0;entryDy=0;entryPerimeter=0;exitX=0;exitY=0.5;exitDx=0;exitDy=0;" parent="1" source="5q_IAKNCsGFluqySmHJG-59" target="5q_IAKNCsGFluqySmHJG-33" edge="1">
          <mxGeometry width="50" height="50" relative="1" as="geometry">
            <mxPoint x="850" y="490" as="sourcePoint" />
            <mxPoint x="850" y="353.5" as="targetPoint" />
          </mxGeometry>
        </mxCell>
      </root>
    </mxGraphModel>
  </diagram>
</mxfile>
